<svg width="40" height="40" viewBox="0 0 40 40" fill="none" xmlns="http://www.w3.org/2000/svg">
<g id="DaVinciResolve">
<g clip-path="url(#paint0_angular_41_3575_clip_path)" data-figma-skip-parse="true"><g transform="matrix(0 0.02 -0.02 0 20 20)"><foreignObject x="-1050" y="-1050" width="2100" height="2100"><div xmlns="http://www.w3.org/1999/xhtml" style="background:conic-gradient(from 90deg,rgba(255, 67, 0, 1) 0deg,rgba(236, 255, 0, 1) 43.2728deg,rgba(53, 255, 0, 1) 89.8597deg,rgba(0, 255, 129, 1) 133.276deg,rgba(0, 255, 222, 1) 154.046deg,rgba(0, 187, 255, 1) 180.111deg,rgba(9, 0, 255, 1) 226.741deg,rgba(204, 0, 255, 1) 269.996deg,rgba(255, 0, 213, 1) 292.512deg,rgba(255, 0, 124, 1) 313.282deg,rgba(255, 67, 0, 1) 360deg);height:100%;width:100%;opacity:1"></div></foreignObject></g></g><rect width="40" height="40" data-figma-gradient-fill="{&#34;type&#34;:&#34;GRADIENT_ANGULAR&#34;,&#34;stops&#34;:[{&#34;color&#34;:{&#34;r&#34;:1.0,&#34;g&#34;:0.26274511218070984,&#34;b&#34;:0.0,&#34;a&#34;:1.0},&#34;position&#34;:0.0},{&#34;color&#34;:{&#34;r&#34;:0.92549020051956177,&#34;g&#34;:1.0,&#34;b&#34;:0.0,&#34;a&#34;:1.0},&#34;position&#34;:0.12020234018564224},{&#34;color&#34;:{&#34;r&#34;:0.20784313976764679,&#34;g&#34;:1.0,&#34;b&#34;:0.0,&#34;a&#34;:1.0},&#34;position&#34;:0.24961030483245850},{&#34;color&#34;:{&#34;r&#34;:0.0,&#34;g&#34;:1.0,&#34;b&#34;:0.50588238239288330,&#34;a&#34;:1.0},&#34;position&#34;:0.37021100521087646},{&#34;color&#34;:{&#34;r&#34;:0.0,&#34;g&#34;:1.0,&#34;b&#34;:0.87058824300765991,&#34;a&#34;:1.0},&#34;position&#34;:0.42790529131889343},{&#34;color&#34;:{&#34;r&#34;:0.0,&#34;g&#34;:0.73333334922790527,&#34;b&#34;:1.0,&#34;a&#34;:1.0},&#34;position&#34;:0.50030827522277832},{&#34;color&#34;:{&#34;r&#34;:0.035294119268655777,&#34;g&#34;:0.0,&#34;b&#34;:1.0,&#34;a&#34;:1.0},&#34;position&#34;:0.62983536720275879},{&#34;color&#34;:{&#34;r&#34;:0.80000001192092896,&#34;g&#34;:0.0,&#34;b&#34;:1.0,&#34;a&#34;:1.0},&#34;position&#34;:0.74998825788497925},{&#34;color&#34;:{&#34;r&#34;:1.0,&#34;g&#34;:0.0,&#34;b&#34;:0.83529412746429443,&#34;a&#34;:1.0},&#34;position&#34;:0.81253397464752197},{&#34;color&#34;:{&#34;r&#34;:1.0,&#34;g&#34;:0.0,&#34;b&#34;:0.48627451062202454,&#34;a&#34;:1.0},&#34;position&#34;:0.87022829055786133},{&#34;color&#34;:{&#34;r&#34;:1.0,&#34;g&#34;:0.26274511218070984,&#34;b&#34;:0.0,&#34;a&#34;:1.0},&#34;position&#34;:1.0}],&#34;transform&#34;:{&#34;m00&#34;:2.4492935992912173e-15,&#34;m01&#34;:-40.0,&#34;m02&#34;:40.0,&#34;m10&#34;:40.0,&#34;m11&#34;:2.4492935992912173e-15,&#34;m12&#34;:-2.4492935992912173e-15},&#34;opacity&#34;:1.0,&#34;blendMode&#34;:&#34;NORMAL&#34;,&#34;stopsVar&#34;:[{&#34;color&#34;:{&#34;r&#34;:1.0,&#34;g&#34;:0.26274511218070984,&#34;b&#34;:0.0,&#34;a&#34;:1.0},&#34;position&#34;:0.0},{&#34;color&#34;:{&#34;r&#34;:0.92549020051956177,&#34;g&#34;:1.0,&#34;b&#34;:0.0,&#34;a&#34;:1.0},&#34;position&#34;:0.12020234018564224},{&#34;color&#34;:{&#34;r&#34;:0.20784313976764679,&#34;g&#34;:1.0,&#34;b&#34;:0.0,&#34;a&#34;:1.0},&#34;position&#34;:0.24961030483245850},{&#34;color&#34;:{&#34;r&#34;:0.0,&#34;g&#34;:1.0,&#34;b&#34;:0.50588238239288330,&#34;a&#34;:1.0},&#34;position&#34;:0.37021100521087646},{&#34;color&#34;:{&#34;r&#34;:0.0,&#34;g&#34;:1.0,&#34;b&#34;:0.87058824300765991,&#34;a&#34;:1.0},&#34;position&#34;:0.42790529131889343},{&#34;color&#34;:{&#34;r&#34;:0.0,&#34;g&#34;:0.73333334922790527,&#34;b&#34;:1.0,&#34;a&#34;:1.0},&#34;position&#34;:0.50030827522277832},{&#34;color&#34;:{&#34;r&#34;:0.035294119268655777,&#34;g&#34;:0.0,&#34;b&#34;:1.0,&#34;a&#34;:1.0},&#34;position&#34;:0.62983536720275879},{&#34;color&#34;:{&#34;r&#34;:0.80000001192092896,&#34;g&#34;:0.0,&#34;b&#34;:1.0,&#34;a&#34;:1.0},&#34;position&#34;:0.74998825788497925},{&#34;color&#34;:{&#34;r&#34;:1.0,&#34;g&#34;:0.0,&#34;b&#34;:0.83529412746429443,&#34;a&#34;:1.0},&#34;position&#34;:0.81253397464752197},{&#34;color&#34;:{&#34;r&#34;:1.0,&#34;g&#34;:0.0,&#34;b&#34;:0.48627451062202454,&#34;a&#34;:1.0},&#34;position&#34;:0.87022829055786133},{&#34;color&#34;:{&#34;r&#34;:1.0,&#34;g&#34;:0.26274511218070984,&#34;b&#34;:0.0,&#34;a&#34;:1.0},&#34;position&#34;:1.0}],&#34;visible&#34;:true}"/>
<g id="DaVinci_Resolve_17_logo 1">
<g id="g7572">
<g id="g6236">
<path id="path27" d="M20.3208 34.5191H19.4769C19.4378 34.5049 19.3985 34.5013 19.359 34.5013C18.9085 34.48 18.4612 34.4437 18.0179 34.3834C17.1885 34.2761 16.3731 34.0937 15.5793 33.8402C14.2171 33.4042 12.9477 32.7786 11.7713 31.9634C10.6805 31.2053 9.71543 30.3118 8.875 29.2825C7.8842 28.0741 7.11215 26.7406 6.56484 25.2753C6.07481 23.9741 5.78169 22.6267 5.69209 21.2359C5.69209 21.1608 5.67786 21.0858 5.65295 21.0107V19.5415C5.67786 19.4767 5.68854 19.4091 5.69209 19.3413C5.70988 19.0087 5.74547 18.6762 5.78888 18.3476C6.00357 16.7605 6.47524 15.2552 7.20125 13.8288C7.70181 12.8456 8.30975 11.9309 9.02458 11.0867C9.73265 10.2504 10.5265 9.50301 11.4058 8.84902C12.8398 7.78357 14.4167 7.01508 16.14 6.54348C16.9766 6.31498 17.8315 6.16483 18.6965 6.09309C18.85 6.07886 19.0113 6.09309 19.1649 6.05396H20.6094C20.7201 6.08598 20.8347 6.06819 20.9454 6.07886C21.5178 6.12868 22.0863 6.20062 22.6509 6.31128C24.4281 6.66162 26.0762 7.3267 27.5997 8.30925C28.7835 9.07062 29.8275 9.98926 30.7392 11.0581C31.4724 11.9161 32.0942 12.8492 32.6021 13.8568C33.2028 15.0475 33.6317 16.2947 33.8753 17.6065C34.0038 18.3 34.1006 19.0006 34.1039 19.7085C34.1039 19.7555 34.1146 19.8053 34.1181 19.8514V20.6951C34.1039 20.7485 34.1039 20.8057 34.1003 20.863C34.1003 20.9987 34.1003 21.1349 34.0897 21.2706C34.0249 22.1359 33.8894 22.99 33.6747 23.8336C33.2636 25.4173 32.6017 26.8865 31.6828 28.2411C30.9997 29.2493 30.2026 30.1574 29.287 30.9615C28.3753 31.7623 27.3774 32.438 26.2939 32.9846C25.0457 33.6135 23.7335 34.05 22.3568 34.2891C21.8278 34.382 21.2949 34.4426 20.7587 34.4749C20.6174 34.4912 20.4676 34.4878 20.3208 34.5191Z" fill="#383838"/>
<g id="g6228">
<path id="path37" d="M16.1837 14.381C16.1737 14.6425 16.2202 14.9284 16.2973 15.2144C16.444 15.7584 16.6873 16.257 16.9742 16.7279C17.6277 17.7987 18.4514 18.7155 19.3452 19.5667C19.4184 19.6367 19.5055 19.6958 19.5988 19.7408C19.6922 19.7894 19.7855 19.7894 19.8821 19.7477C19.9754 19.7061 20.0589 19.6468 20.129 19.5698C20.4391 19.2491 20.7457 18.928 21.0393 18.5966C21.4527 18.1257 21.8464 17.6412 22.2032 17.1215C22.5269 16.6507 22.8169 16.1554 23.0301 15.6183C23.2433 15.0845 23.347 14.5339 23.2769 13.955C23.1602 12.9998 22.7702 12.1904 22.0731 11.5557C21.2488 10.8065 20.2887 10.5065 19.2083 10.6736C17.4509 10.9459 16.1769 12.5642 16.1837 14.381Z" fill="url(#paint1_radial_41_3575)" style="mix-blend-mode:lighten"/>
<path id="path39" d="M25.2784 27.4018C25.0572 27.4085 24.8088 27.3812 24.5606 27.3284C23.826 27.1676 23.202 26.8336 22.7225 26.2415C22.4309 25.8804 22.1858 25.489 21.9745 25.0775C21.726 24.5925 21.5185 24.0873 21.3375 23.5758C21.1163 22.9572 20.9284 22.325 20.7839 21.686C20.7036 21.3281 20.7938 21.1038 21.1898 20.9805C21.6927 20.8233 22.1993 20.6828 22.7158 20.5689C23.5709 20.3815 24.4327 20.2613 25.3118 20.291C25.5602 20.3009 25.808 20.3276 26.0532 20.3711C26.7643 20.495 27.3678 20.8228 27.8608 21.341C28.7029 22.224 29.0378 23.2776 28.8301 24.4786C28.5317 26.1947 27.0089 27.4153 25.2784 27.4018Z" fill="url(#paint2_radial_41_3575)"/>
<path id="path33" d="M14.2025 27.4018C14.4237 27.4085 14.6721 27.3812 14.9204 27.3284C15.655 27.1676 16.2789 26.8336 16.7584 26.2415C17.05 25.8804 17.2952 25.489 17.5065 25.0775C17.7549 24.5925 17.9625 24.0873 18.1435 23.5758C18.3647 22.9572 18.5525 22.325 18.6971 21.686C18.7773 21.3281 18.6871 21.1038 18.2912 20.9805C17.7883 20.8233 17.2816 20.6828 16.7651 20.5689C15.9101 20.3815 15.0482 20.2613 14.1691 20.291C13.9207 20.3009 13.6729 20.3276 13.4278 20.3711C12.7167 20.495 12.1131 20.8228 11.6201 21.341C10.7781 22.224 10.4431 23.2776 10.6508 24.4786C10.9492 26.1947 12.4721 27.4153 14.2025 27.4018Z" fill="url(#paint3_radial_41_3575)"/>
</g>
</g>
</g>
</g>
</g>
<defs>
<clipPath id="paint0_angular_41_3575_clip_path"><rect width="40" height="40"/></clipPath><radialGradient id="paint1_radial_41_3575" cx="0" cy="0" r="1" gradientUnits="userSpaceOnUse" gradientTransform="translate(19.8094 19.3039) rotate(4.82254) scale(3.77957 6.98654)">
<stop stop-color="white"/>
<stop offset="1" stop-color="#009BD8"/>
</radialGradient>
<radialGradient id="paint2_radial_41_3575" cx="0" cy="0" r="1" gradientUnits="userSpaceOnUse" gradientTransform="translate(20.7966 21.4673) rotate(21.7759) scale(8.33472 4.45388)">
<stop stop-color="white"/>
<stop offset="1" stop-color="#FF3044"/>
</radialGradient>
<radialGradient id="paint3_radial_41_3575" cx="0" cy="0" r="1" gradientUnits="userSpaceOnUse" gradientTransform="translate(18.6401 21.1653) rotate(146.321) scale(8.42283 3.82861)">
<stop stop-color="white"/>
<stop offset="1" stop-color="#FCFF7C"/>
</radialGradient>
</defs>
</svg>
