<svg width="40" height="41" viewBox="0 0 40 41" fill="none" xmlns="http://www.w3.org/2000/svg">
<g id="Excel">
<g id="Microsoft_Office_Excel_(2025&#226;&#128;&#147;present) 1" clip-path="url(#clip0_41_3560)">
<g id="surface1">
<path id="Vector" d="M10.0001 15.1736C10.0001 13.1909 11.6122 11.5839 13.6005 11.5839H34.0007V32.3245C34.0007 33.6462 32.9261 34.718 31.6006 34.718H14.7998C12.1491 34.718 10.0001 32.5751 10.0001 29.9319V15.1736Z" fill="url(#paint0_radial_41_3560)"/>
<path id="Vector_2" d="M10.0001 15.1736C10.0001 13.1909 11.6122 11.5839 13.6005 11.5839H34.0007V32.3245C34.0007 33.6462 32.9261 34.718 31.6006 34.718H14.7998C12.1491 34.718 10.0001 32.5751 10.0001 29.9319V15.1736Z" fill="url(#paint1_radial_41_3560)"/>
<path id="Vector_3" d="M10.0001 19.1627C10.0001 17.1799 11.6122 15.573 13.6005 15.573H24.4005C23.0749 15.573 22.0003 16.6445 22.0003 17.9662V22.7525C22.0003 24.074 20.9259 25.1457 19.6001 25.1457H14.8005C12.1496 25.1457 10.0008 27.2886 10.0008 29.932V19.1627H10.0001Z" fill="url(#paint2_linear_41_3560)"/>
<path id="Vector_4" d="M10.0001 19.1627C10.0001 17.1799 11.6122 15.573 13.6005 15.573H24.4005C23.0749 15.573 22.0003 16.6445 22.0003 17.9662V22.7525C22.0003 24.074 20.9259 25.1457 19.6001 25.1457H14.8005C12.1496 25.1457 10.0008 27.2886 10.0008 29.932V19.1627H10.0001Z" fill="url(#paint3_linear_41_3560)"/>
<path id="Vector_5" d="M10.0001 10.786C10.0001 8.14285 12.1491 6 14.7998 6H24.4V15.5729H14.7998C12.1491 15.5729 10.0001 17.7158 10.0001 20.359V10.786Z" fill="url(#paint4_linear_41_3560)"/>
<path id="Vector_6" d="M10.0001 10.786C10.0001 8.14285 12.1491 6 14.7998 6H24.4V15.5729H14.7998C12.1491 15.5729 10.0001 17.7158 10.0001 20.359V10.786Z" fill="url(#paint5_radial_41_3560)"/>
<path id="Vector_7" d="M10.0001 10.786C10.0001 8.14285 12.1491 6 14.7998 6H24.4V15.5729H14.7998C12.1491 15.5729 10.0001 17.7158 10.0001 20.359V10.786Z" fill="url(#paint6_linear_41_3560)"/>
<path id="Vector_8" d="M24.3999 6H31.5998C32.9253 6 33.9999 7.07131 33.9999 8.39279V13.1802C33.9999 14.5016 32.9253 15.5729 31.5998 15.5729H24.3999C23.0744 15.5729 21.9998 14.5016 21.9998 13.1802V8.39279C21.9998 7.07131 23.0744 6 24.3999 6Z" fill="url(#paint7_radial_41_3560)"/>
<path id="Vector_9" d="M8.60002 19.5612H16.1998C17.6358 19.5612 18.8 20.7218 18.8 22.1532V29.7325C18.8 31.1641 17.6358 32.3245 16.1998 32.3245H8.60002C7.16419 32.3245 6 31.1641 6 29.7325V22.1532C6 20.7218 7.16419 19.5612 8.60002 19.5612Z" fill="url(#paint8_radial_41_3560)"/>
<path id="Vector_10" d="M8.60002 19.5612H16.1998C17.6358 19.5612 18.8 20.7218 18.8 22.1532V29.7325C18.8 31.1641 17.6358 32.3245 16.1998 32.3245H8.60002C7.16419 32.3245 6 31.1641 6 29.7325V22.1532C6 20.7218 7.16419 19.5612 8.60002 19.5612Z" fill="url(#paint9_radial_41_3560)"/>
<path id="Vector_11" d="M15.7643 29.5896H13.791L12.5524 27.265C12.508 27.1835 12.474 27.1191 12.4504 27.0716C12.4302 27.0209 12.4077 26.963 12.384 26.8986H12.364C12.3334 26.9803 12.3046 27.0462 12.2776 27.0967C12.2503 27.1479 12.2182 27.2105 12.1808 27.2852L10.896 29.5889H9.03503L11.2682 25.9372L9.18829 22.2957H11.1357L12.2366 24.371C12.281 24.4558 12.3185 24.5305 12.3489 24.5949C12.3829 24.6557 12.4169 24.7286 12.4509 24.8136H12.4711C12.5184 24.7156 12.5557 24.6373 12.5834 24.5799C12.614 24.5224 12.655 24.4461 12.7056 24.3515L13.8475 22.2968H15.7033L13.5928 25.8827L15.7647 29.59L15.7643 29.5896Z" fill="white"/>
</g>
</g>
</g>
<defs>
<radialGradient id="paint0_radial_41_3560" cx="0" cy="0" r="1" gradientTransform="matrix(-22.6678 -23.7801 -18.501 17.5352 34.0706 36.5442)" gradientUnits="userSpaceOnUse">
<stop offset="0.06" stop-color="#379539"/>
<stop offset="0.42" stop-color="#297C2D"/>
<stop offset="0.7" stop-color="#15561C"/>
</radialGradient>
<radialGradient id="paint1_radial_41_3560" cx="0" cy="0" r="1" gradientTransform="matrix(-9.58385 -9.23944 -7.16903 7.39391 17.2596 19.9978)" gradientUnits="userSpaceOnUse">
<stop stop-color="#073B10" stop-opacity="0.698039"/>
<stop offset="0.99" stop-color="#084A13" stop-opacity="0"/>
</radialGradient>
<linearGradient id="paint2_linear_41_3560" x1="10.0001" y1="22.7524" x2="21.0279" y2="22.7524" gradientUnits="userSpaceOnUse">
<stop stop-color="#52D17C"/>
<stop offset="0.33" stop-color="#4AA647"/>
</linearGradient>
<linearGradient id="paint3_linear_41_3560" x1="17.2001" y1="15.5729" x2="17.2001" y2="25.5466" gradientUnits="userSpaceOnUse">
<stop stop-color="#29852F" stop-opacity="0.301961"/>
<stop offset="0.5" stop-color="#4AA647" stop-opacity="0"/>
</linearGradient>
<linearGradient id="paint4_linear_41_3560" x1="10.6373" y1="17.7617" x2="23.9085" y2="6.21567" gradientUnits="userSpaceOnUse">
<stop stop-color="#66D052"/>
<stop offset="1" stop-color="#85E972"/>
</linearGradient>
<radialGradient id="paint5_radial_41_3560" cx="0" cy="0" r="1" gradientUnits="userSpaceOnUse" gradientTransform="translate(24.0371 11.9221) rotate(-180) scale(7.21823 15.2297)">
<stop offset="0.29" stop-color="#4EB43B"/>
<stop offset="1" stop-color="#72CC61" stop-opacity="0"/>
</radialGradient>
<linearGradient id="paint6_linear_41_3560" x1="16.492" y1="13.1795" x2="10.0001" y2="13.1795" gradientUnits="userSpaceOnUse">
<stop offset="0.18" stop-color="#C0E075" stop-opacity="0"/>
<stop offset="1" stop-color="#D1EB95"/>
</linearGradient>
<radialGradient id="paint7_radial_41_3560" cx="0" cy="0" r="1" gradientTransform="matrix(-13.5303 -10.9151 10.9163 -13.4534 35.6895 17.0333)" gradientUnits="userSpaceOnUse">
<stop offset="0.44" stop-color="#79E96D"/>
<stop offset="1" stop-color="#D0EB76"/>
</radialGradient>
<radialGradient id="paint8_radial_41_3560" cx="0" cy="0" r="1" gradientTransform="matrix(12.7975 12.7626 36.4445 -36.3375 6.37607 19.6296)" gradientUnits="userSpaceOnUse">
<stop stop-color="#20A85E"/>
<stop offset="0.94" stop-color="#09442A"/>
</radialGradient>
<radialGradient id="paint9_radial_41_3560" cx="0" cy="0" r="1" gradientUnits="userSpaceOnUse" gradientTransform="translate(12.5461 27.22) rotate(90) scale(8.93519 10.3232)">
<stop offset="0.58" stop-color="#33A662" stop-opacity="0"/>
<stop offset="0.97" stop-color="#98F0B0" stop-opacity="0.301961"/>
</radialGradient>
<clipPath id="clip0_41_3560">
<rect width="28" height="28.7179" fill="white" transform="translate(6 6)"/>
</clipPath>
</defs>
</svg>
