<svg width="40" height="40" viewBox="0 0 40 40" fill="none" xmlns="http://www.w3.org/2000/svg">
<g id="Flutter">
<g id="Group">
<g id="Clip path group">
<mask id="mask0_41_3498" style="mask-type:luminance" maskUnits="userSpaceOnUse" x="6" y="2" width="28" height="36">
<g id="B">
<path id="Vector" d="M34 18.6631L24.6666 27.9997L34 37.3364H23.3347L13.9981 27.9997L23.3347 18.6631H34ZM23.3347 2.66357L6 19.9983L11.3343 25.3326L34 2.66357H23.3347Z" fill="white"/>
</g>
</mask>
<g mask="url(#mask0_41_3498)">
<g id="Group_2">
<path id="Vector_2" d="M14.0015 27.9997L19.3324 33.334L34 18.6631H23.3348L14.0015 27.9997Z" fill="#39CEFD"/>
</g>
</g>
</g>
<g id="Clip path group_2">
<mask id="mask1_41_3498" style="mask-type:luminance" maskUnits="userSpaceOnUse" x="6" y="2" width="28" height="36">
<g id="D">
<path id="Vector_3" d="M34 18.6631L24.6666 27.9997L34 37.3364H23.3347L13.9981 27.9997L23.3347 18.6631H34ZM23.3347 2.66357L6 19.9983L11.3343 25.3326L34 2.66357H23.3347Z" fill="white"/>
</g>
</mask>
<g mask="url(#mask1_41_3498)">
<path id="Vector_4" d="M23.3347 2.66357H34L11.3343 25.3326L6 19.9983L23.3347 2.66357Z" fill="#39CEFD"/>
</g>
</g>
<g id="Clip path group_3">
<mask id="mask2_41_3498" style="mask-type:luminance" maskUnits="userSpaceOnUse" x="6" y="2" width="28" height="36">
<g id="F">
<path id="Vector_5" d="M34 18.6631L24.6666 27.9997L34 37.3364H23.3347L13.9981 27.9997L23.3347 18.6631H34ZM23.3347 2.66357L6 19.9983L11.3343 25.3326L34 2.66357H23.3347Z" fill="white"/>
</g>
</mask>
<g mask="url(#mask2_41_3498)">
<path id="Vector_6" d="M19.3324 33.334L23.3348 37.3331H34L24.6667 27.9998L19.3324 33.334Z" fill="#03569B"/>
</g>
</g>
<g id="Clip path group_4">
<mask id="mask3_41_3498" style="mask-type:luminance" maskUnits="userSpaceOnUse" x="6" y="2" width="28" height="36">
<g id="H">
<path id="Vector_7" d="M34 18.6631L24.6666 27.9997L34 37.3364H23.3347L13.9981 27.9997L23.3347 18.6631H34ZM23.3347 2.66357L6 19.9983L11.3343 25.3326L34 2.66357H23.3347Z" fill="white"/>
</g>
</mask>
<g mask="url(#mask3_41_3498)">
<path id="Vector_8" d="M27.2437 30.5935L24.6667 27.9998L19.3324 33.334L27.2437 30.5935Z" fill="url(#paint0_linear_41_3498)"/>
</g>
</g>
<g id="Clip path group_5">
<mask id="mask4_41_3498" style="mask-type:luminance" maskUnits="userSpaceOnUse" x="6" y="2" width="28" height="36">
<g id="K">
<path id="Vector_9" d="M34 18.6631L24.6666 27.9997L34 37.3364H23.3347L13.9981 27.9997L23.3347 18.6631H34ZM23.3347 2.66357L6 19.9983L11.3343 25.3326L34 2.66357H23.3347Z" fill="white"/>
</g>
</mask>
<g mask="url(#mask4_41_3498)">
<g id="Group_3">
<path id="Vector_10" d="M14.0009 27.9979L19.3353 22.6635L24.67 27.9979L19.3353 33.3323L14.0009 27.9979Z" fill="#16B9FD"/>
</g>
</g>
</g>
<path id="Vector_11" d="M34 18.6631L24.6666 27.9997L34 37.3364H23.3347L13.9981 27.9997L23.3347 18.6631H34ZM23.3347 2.66357L6 19.9983L11.3343 25.3326L34 2.66357H23.3347Z" fill="url(#paint1_radial_41_3498)"/>
</g>
</g>
<defs>
<linearGradient id="paint0_linear_41_3498" x1="20.8891" y1="34.3635" x2="24.862" y2="30.3906" gradientUnits="userSpaceOnUse">
<stop stop-color="#1A237E" stop-opacity="0.4"/>
<stop offset="1" stop-color="#1A237E" stop-opacity="0"/>
</linearGradient>
<radialGradient id="paint1_radial_41_3498" cx="0" cy="0" r="1" gradientUnits="userSpaceOnUse" gradientTransform="translate(6.78661 5.02677) scale(42.418 42.418)">
<stop stop-color="white" stop-opacity="0.1"/>
<stop offset="1" stop-color="white" stop-opacity="0"/>
</radialGradient>
</defs>
</svg>
